# xmcd
#
# Track frame offsets:
# 150
# 16897
# 38900
# 62553
# 77952
# 91713
# 112860
# 129334
# 150745
# 169030
# 185461
# 209014
# 225265
# 247742
# 265439
# 279895
# 295719
# 309427
#
# Disc length: 4319 seconds
#
#
# Revision: 0
# Processed by: cddbd v1.5.1PL0 Copyright (c) Steve Scherf et al.
# Submitted via: FreeRIP 2.941 
#
DISCID=e010dd12
DTITLE=Xiru Missioneiro - Pra Sempre Sucessos
DYEAR=2005
DGENRE=Country
TTITLE0=O Guasca e a roqueira
TTITLE1=Animalzinho teimoso
TTITLE2=Corpo esgualepado
TTITLE3=Bagual e meio
TTITLE4=Te peguei babando
TTITLE5=Prosa de compadre
TTITLE6=Tchu tchuquinha
TTITLE7=Retruco da marculina
TTITLE8=Amor de atravessado
TTITLE9=Chupando beico
TTITLE10=Uma mina diferenti
TTITLE11=Por debaixo dos acolchoado
TTITLE12=O repi do guasca
TTITLE13=Tesourinho de muie
TTITLE14=Raimunda
TTITLE15=Deu bolor
TTITLE16=Mimoso das guria
TTITLE17=Porque nao veio antes
EXTD=
EXTT0=
EXTT1=
EXTT2=
EXTT3=
EXTT4=
EXTT5=
EXTT6=
EXTT7=
EXTT8=
EXTT9=
EXTT10=
EXTT11=
EXTT12=
EXTT13=
EXTT14=
EXTT15=
EXTT16=
EXTT17=
PLAYORDER=
